# xmcd CD database file
#
# Track frame offsets:
#	150
#	22305
#	39972
#	55512
#	79030
#	100050
#	122640
#	141162
#	158412
#	182535
#	210970
#
# Disc length: 3118 seconds
#
# Revision: 2
# Processed by: cddbd v1.5.1PL0 Copyright (c) Steve Scherf et al.
# Submitted via: CDex 1.51
#
DISCID=7e0c2c0b
DTITLE=Various Artist - The Alabama Blues Showcase: Live At The Train Station
DYEAR=1994
DGENRE=Blues
TTITLE0=Flip, Flop and Fly - Dick's Hat Band
TTITLE1=Look What You Done - Debbie Bond and The Kokomo Blues Band
TTITLE2=Early in the Morning - Little Jimmy Reed
TTITLE3=Just a Little Bit - Jerry "Boogie" McCain
TTITLE4=Mellow Down Easy - Topper Price and The Upsetters
TTITLE5=Will It Go Round in Circles? - Gravy
TTITLE6=Good Loving, Baby - "Big Bo" McGee and "Little Whit" Wells
TTITLE7=Sweet Home Chicago - "Big Bo" McGee and "Little Whit" Wells
TTITLE8=A Highway is like a Woman - Microwave Dave and The Nukes
TTITLE9=Muddy Water - Dick's Hat Band
TTITLE10=Come On - Topper Price and The Upsetters
EXTD=Dedicated to the late, great Johnny Shines (1915-1992), first president of The Alabama Blues Society.\n\nRecorded April 9, 1994 at The Old Train Station, Tuscaloosa, Alabama YEAR: 1994
EXTT0=
EXTT1=
EXTT2=
EXTT3=
EXTT4=
EXTT5=
EXTT6=
EXTT7=
EXTT8=
EXTT9=
EXTT10=
PLAYORDER=
